<svg width="278" height="280" viewBox="0 0 278 280" fill="none" xmlns="http://www.w3.org/2000/svg">
<path d="M122.081 12.9849C126.29 -4.3283 150.911 -4.32829 155.12 12.9849L174.09 91.0356C175.582 97.171 180.351 101.974 186.475 103.51L264.335 123.032C281.489 127.333 281.489 151.71 264.335 156.011L186.475 175.534C180.351 177.069 175.582 181.873 174.09 188.008L155.12 266.059C150.911 283.372 126.29 283.372 122.081 266.059L103.11 188.008C101.619 181.873 96.8504 177.069 90.7259 175.534L12.8655 156.011C-4.2885 151.71 -4.28846 127.333 12.8655 123.032L90.7259 103.51C96.8504 101.974 101.619 97.171 103.11 91.0356L122.081 12.9849Z" fill="black"/>
</svg>
